<svg width="232" height="307" viewBox="0 0 232 307" fill="none" xmlns="http://www.w3.org/2000/svg">
<path d="M201.773 189.721L171.855 172.998L116.002 205.236L116.002 239.847L201.773 189.721Z" fill="url(#paint0_linear_2003_623)"/>
<path d="M115.997 239.846L116.121 205.256L60.1364 172.994L30.3591 189.975L115.997 239.846Z" fill="url(#paint1_linear_2003_623)"/>
<path d="M231.663 73.6372L201.639 90.9713L115.867 41.4509L116.006 6.86271L231.663 73.6372Z" fill="#DA125A"/>
<path d="M0.337097 207.149L30.363 189.963L115.994 239.268L115.994 273.861L0.337097 207.149Z" fill="#DA125A"/>
<path d="M231.663 207.125L201.639 189.791L201.639 90.75L231.663 73.576L231.663 207.125Z" fill="#ED2C72"/>
<path d="M0.337097 73.6006L30.3607 90.9347L30.3607 189.976L0.337106 207.15L0.337097 73.6006Z" fill="#ED2C72"/>
<path d="M116.006 273.899L116.006 239.231L201.644 189.787L231.663 207.125L116.006 273.899Z" fill="#EA1B66"/>
<path d="M115.994 6.86279L115.994 41.5311L30.2219 91.0515L0.33703 73.6373L115.994 6.86279Z" fill="#DA125A"/>
<path d="M116 205.25L60.1413 173L60.1413 32.25L116 -4.88332e-06L171.859 32.25L171.859 173L116 205.25Z" fill="url(#paint2_linear_2003_623)"/>
<path d="M75.2538 141.83H81.6338C81.5951 141.037 81.3051 140.37 80.7638 139.829C80.2418 139.288 79.4685 139.017 78.4438 139.017C77.5158 139.017 76.7618 139.307 76.1818 139.887C75.6018 140.467 75.2925 141.115 75.2538 141.83ZM82.0108 145.542L85.2298 146.499C84.8431 147.814 84.0795 148.896 82.9388 149.747C81.8175 150.598 80.4158 151.023 78.7338 151.023C76.6845 151.023 74.9445 150.337 73.5138 148.964C72.0831 147.572 71.3678 145.716 71.3678 143.396C71.3678 141.192 72.0638 139.394 73.4558 138.002C74.8478 136.591 76.4911 135.885 78.3858 135.885C80.5898 135.885 82.3105 136.542 83.5478 137.857C84.8045 139.172 85.4328 140.979 85.4328 143.28C85.4328 143.435 85.4231 143.609 85.4038 143.802C85.4038 143.995 85.4038 144.15 85.4038 144.266L85.3748 144.469H75.1668C75.2055 145.397 75.5728 146.17 76.2688 146.789C76.9648 147.408 77.7961 147.717 78.7628 147.717C80.4061 147.717 81.4888 146.992 82.0108 145.542ZM98.0691 151.023C95.1111 151.023 92.6171 150.037 90.5871 148.065C88.5571 146.093 87.5421 143.512 87.5421 140.322C87.5421 137.151 88.5668 134.57 90.6161 132.579C92.6848 130.588 95.1498 129.592 98.0111 129.592C100.64 129.592 102.748 130.259 104.333 131.593C105.938 132.927 106.972 134.532 107.436 136.407L103.666 137.596C103.376 136.436 102.767 135.46 101.839 134.667C100.911 133.855 99.6351 133.449 98.0111 133.449C96.3291 133.449 94.8501 134.048 93.5741 135.247C92.3174 136.446 91.6891 138.137 91.6891 140.322C91.6891 142.41 92.3078 144.063 93.5451 145.281C94.8018 146.499 96.3098 147.108 98.0691 147.108C99.6738 147.108 100.95 146.692 101.897 145.861C102.864 145.03 103.511 144.044 103.84 142.903L107.581 144.034C107.368 144.865 107.02 145.677 106.537 146.47C106.073 147.263 105.464 148.007 104.71 148.703C103.956 149.399 102.999 149.96 101.839 150.385C100.698 150.81 99.4418 151.023 98.0691 151.023ZM114.938 139.394H118.099C119.085 139.394 119.868 139.133 120.448 138.611C121.028 138.07 121.318 137.354 121.318 136.465C121.318 135.556 121.028 134.841 120.448 134.319C119.887 133.778 119.104 133.507 118.099 133.507H114.938V139.394ZM118.592 142.845H114.909V150.588H110.907V130.027H118.592C120.602 130.027 122.226 130.626 123.464 131.825C124.72 133.024 125.349 134.561 125.349 136.436C125.349 138.311 124.72 139.848 123.464 141.047C122.226 142.246 120.602 142.845 118.592 142.845ZM132.44 139.394H135.601C136.587 139.394 137.37 139.133 137.95 138.611C138.53 138.07 138.82 137.354 138.82 136.465C138.82 135.556 138.53 134.841 137.95 134.319C137.389 133.778 136.606 133.507 135.601 133.507H132.44V139.394ZM136.094 142.845H132.411V150.588H128.409V130.027H136.094C138.104 130.027 139.728 130.626 140.966 131.825C142.222 133.024 142.851 134.561 142.851 136.436C142.851 138.311 142.222 139.848 140.966 141.047C139.728 142.246 138.104 142.845 136.094 142.845ZM161.133 133.826H154.637V150.588H150.606V133.826H144.11V130.027H161.133V133.826Z" fill="white"/>
<path d="M116 273.861L167.359 303.513C169.359 304.668 171.859 303.225 171.859 300.915V241.736L116 273.861L60.1413 241.736L60.1413 300.915C60.1413 303.225 62.6413 304.668 64.6413 303.513L116 273.861Z" fill="url(#paint3_linear_2003_623)"/>
<path fill-rule="evenodd" clip-rule="evenodd" d="M142.569 46.2461L144.198 46.2461C145.447 46.2461 146.072 47.7562 145.189 48.6395L127.588 66.2406C127.061 66.7674 126.207 66.7674 125.68 66.2406C125.153 65.7137 125.153 64.8595 125.68 64.3327L141.03 48.9825C133.075 49.3789 125.556 52.8361 120.07 58.6646C119.559 59.2071 118.705 59.2329 118.163 58.7222C117.62 58.2115 117.594 57.3577 118.105 56.8152C124.454 50.0704 133.306 46.2461 142.569 46.2461ZM104.25 72.5772C104.777 73.104 104.777 73.9582 104.25 74.485L93.359 85.376L94.9354 89.4385L98.9979 91.0149L109.889 80.1239C110.416 79.5971 111.27 79.5971 111.797 80.1239C112.324 80.6508 112.324 81.5049 111.797 82.0318L101.747 92.0816L104.462 93.1351C105.157 93.4046 105.501 94.1862 105.232 94.8808C104.962 95.5754 104.181 95.92 103.486 95.6505L94.183 92.0406L86.3727 99.851C85.8458 100.378 84.9917 100.378 84.4648 99.851C83.938 99.3241 83.938 98.47 84.4648 97.9431L92.3008 90.1072L88.7234 80.8879C88.4539 80.1933 88.7985 79.4117 89.4931 79.1422C90.1877 78.8726 90.9692 79.2172 91.2388 79.9118L92.2923 82.627L102.342 72.5772C102.869 72.0503 103.723 72.0503 104.25 72.5772Z" fill="url(#paint4_linear_2003_623)"/>
<path fill-rule="evenodd" clip-rule="evenodd" d="M84.554 48.6395C83.6708 47.7562 84.2964 46.2461 85.5454 46.2461L87.1736 46.2461C96.4298 46.2461 105.276 50.0647 111.624 56.8002L138.328 83.5047C138.855 84.0315 138.855 84.8857 138.328 85.4125C137.802 85.9394 136.947 85.9394 136.421 85.4125L109.687 58.6794L109.673 58.6646C104.187 52.8361 96.6679 49.3789 88.7127 48.9825L130.782 91.0514C131.309 91.5783 131.309 92.4324 130.782 92.9593C130.255 93.4861 129.401 93.4861 128.874 92.9593L84.554 48.6395Z" fill="url(#paint5_linear_2003_623)"/>
<path fill-rule="evenodd" clip-rule="evenodd" d="M140.25 79.1421C140.944 79.4117 141.289 80.1932 141.019 80.8879L136.893 91.5235L126.257 95.6505C125.562 95.92 124.781 95.5754 124.511 94.8808C124.242 94.1862 124.586 93.4046 125.281 93.1351L134.807 89.4385L138.504 79.9118C138.774 79.2172 139.555 78.8726 140.25 79.1421Z" fill="url(#paint6_linear_2003_623)"/>
<path fill-rule="evenodd" clip-rule="evenodd" d="M145.278 99.851C144.751 100.378 143.897 100.378 143.37 99.851L135.087 91.5672C134.56 91.0404 134.56 90.1862 135.087 89.6593C135.613 89.1325 136.468 89.1325 136.994 89.6593L145.278 97.9431C145.805 98.47 145.805 99.3241 145.278 99.851Z" fill="url(#paint7_linear_2003_623)"/>
<defs>
<linearGradient id="paint0_linear_2003_623" x1="114.562" y1="215.361" x2="144.104" y2="243.512" gradientUnits="userSpaceOnUse">
<stop stop-color="#EF7D22"/>
<stop offset="0.23" stop-color="#EF741D"/>
<stop offset="0.62" stop-color="#EE5A10"/>
<stop offset="1" stop-color="#EE3B00"/>
</linearGradient>
<linearGradient id="paint1_linear_2003_623" x1="30.0706" y1="191.361" x2="41.7608" y2="228.477" gradientUnits="userSpaceOnUse">
<stop stop-color="#EF7D22"/>
<stop offset="0.23" stop-color="#EF741D"/>
<stop offset="0.62" stop-color="#EE5A10"/>
<stop offset="1" stop-color="#EE3B00"/>
</linearGradient>
<linearGradient id="paint2_linear_2003_623" x1="116" y1="297.802" x2="116" y2="0.000540351" gradientUnits="userSpaceOnUse">
<stop stop-color="#6819CB"/>
<stop offset="0.885417" stop-color="#AF239C"/>
<stop offset="1" stop-color="#ED2C72"/>
</linearGradient>
<linearGradient id="paint3_linear_2003_623" x1="116.307" y1="241.711" x2="115.975" y2="306.287" gradientUnits="userSpaceOnUse">
<stop stop-color="#821DBA"/>
<stop offset="1" stop-color="#ED2C72"/>
</linearGradient>
<linearGradient id="paint4_linear_2003_623" x1="86.1758" y1="35.639" x2="159.378" y2="41.9088" gradientUnits="userSpaceOnUse">
<stop offset="0.177476" stop-color="#BB85FF"/>
<stop offset="1" stop-color="#FF5E5E"/>
</linearGradient>
<linearGradient id="paint5_linear_2003_623" x1="86.1758" y1="35.639" x2="159.378" y2="41.9088" gradientUnits="userSpaceOnUse">
<stop offset="0.177476" stop-color="#BB85FF"/>
<stop offset="1" stop-color="#FF5E5E"/>
</linearGradient>
<linearGradient id="paint6_linear_2003_623" x1="86.1758" y1="35.639" x2="159.378" y2="41.9088" gradientUnits="userSpaceOnUse">
<stop offset="0.177476" stop-color="#BB85FF"/>
<stop offset="1" stop-color="#FF5E5E"/>
</linearGradient>
<linearGradient id="paint7_linear_2003_623" x1="86.1758" y1="35.639" x2="159.378" y2="41.9088" gradientUnits="userSpaceOnUse">
<stop offset="0.177476" stop-color="#BB85FF"/>
<stop offset="1" stop-color="#FF5E5E"/>
</linearGradient>
</defs>
</svg>
