<svg width="1200" height="600" viewBox="0 0 1200 600" fill="none" xmlns="http://www.w3.org/2000/svg">
  <defs>
    <linearGradient id="bg" x1="80" y1="40" x2="1120" y2="560" gradientUnits="userSpaceOnUse">
      <stop stop-color="#0B1220"/>
      <stop offset="1" stop-color="#161B26"/>
    </linearGradient>
    <linearGradient id="panel" x1="235" y1="155" x2="955" y2="445" gradientUnits="userSpaceOnUse">
      <stop stop-color="#111827"/>
      <stop offset="1" stop-color="#1F2937"/>
    </linearGradient>
    <linearGradient id="accent" x1="280" y1="180" x2="920" y2="420" gradientUnits="userSpaceOnUse">
      <stop stop-color="#EF4444"/>
      <stop offset="1" stop-color="#22C55E"/>
    </linearGradient>
    <filter id="shadow" x="150" y="85" width="900" height="430" filterUnits="userSpaceOnUse" color-interpolation-filters="sRGB">
      <feDropShadow dx="0" dy="18" stdDeviation="28" flood-color="#020617" flood-opacity="0.45"/>
    </filter>
  </defs>

  <rect width="1200" height="600" rx="36" fill="url(#bg)"/>
  <circle cx="170" cy="100" r="170" fill="#7C3AED" fill-opacity="0.08"/>
  <circle cx="1025" cy="500" r="210" fill="#22C55E" fill-opacity="0.08"/>
  <path d="M930 72C905 105 905 132 930 165" stroke="#94A3B8" stroke-opacity="0.45" stroke-width="5" stroke-linecap="round"/>
  <path d="M1015 72C990 105 990 132 1015 165" stroke="#94A3B8" stroke-opacity="0.45" stroke-width="5" stroke-linecap="round"/>
  <path d="M972 60V185" stroke="#94A3B8" stroke-opacity="0.55" stroke-width="5" stroke-linecap="round"/>
  <circle cx="972" cy="52" r="16" fill="#CBD5E1"/>
  <circle cx="930" cy="62" r="12" fill="#CBD5E1"/>
  <circle cx="1015" cy="62" r="12" fill="#CBD5E1"/>

  <g filter="url(#shadow)">
    <rect x="200" y="120" width="800" height="360" rx="30" fill="url(#panel)"/>
    <rect x="232" y="152" width="736" height="296" rx="22" fill="#0F172A" stroke="#334155" stroke-width="2"/>
  </g>

  <rect x="232" y="152" width="736" height="26" rx="13" fill="#111827"/>
  <circle cx="266" cy="165" r="7" fill="#EF4444"/>
  <circle cx="290" cy="165" r="7" fill="#F59E0B"/>
  <circle cx="314" cy="165" r="7" fill="#22C55E"/>

  <path d="M296 236H904" stroke="#1E293B" stroke-width="2"/>
  <path d="M296 308H904" stroke="#1E293B" stroke-width="2"/>
  <path d="M296 380H904" stroke="#1E293B" stroke-width="2"/>

  <rect x="288" y="215" width="188" height="18" rx="9" fill="#EF4444" fill-opacity="0.9"/>
  <rect x="288" y="287" width="128" height="18" rx="9" fill="#22C55E" fill-opacity="0.9"/>
  <rect x="288" y="359" width="152" height="18" rx="9" fill="#38BDF8" fill-opacity="0.85"/>

  <rect x="518" y="215" width="314" height="18" rx="9" fill="#334155"/>
  <rect x="458" y="287" width="374" height="18" rx="9" fill="#334155"/>
  <rect x="482" y="359" width="350" height="18" rx="9" fill="#334155"/>

  <path d="M943 197L880 244" stroke="#F8FAFC" stroke-opacity="0.7" stroke-width="3" stroke-linecap="round"/>
  <path d="M943 197L912 265" stroke="#F8FAFC" stroke-opacity="0.7" stroke-width="3" stroke-linecap="round"/>
  <path d="M943 197L860 340" stroke="#F8FAFC" stroke-opacity="0.7" stroke-width="3" stroke-linecap="round"/>
  <path d="M943 197L920 372" stroke="#F8FAFC" stroke-opacity="0.7" stroke-width="3" stroke-linecap="round"/>

  <path d="M850 246C880 254 900 274 908 300C887 317 858 321 832 311C825 286 831 262 850 246Z" fill="url(#accent)"/>
  <path d="M837 318L818 347" stroke="#CBD5E1" stroke-width="4" stroke-linecap="round"/>
  <path d="M903 307L919 347" stroke="#CBD5E1" stroke-width="4" stroke-linecap="round"/>

  <text x="286" y="505" fill="#F8FAFC" font-family="Segoe UI, Arial, sans-serif" font-size="78" font-weight="700">Marionette</text>
  <text x="288" y="548" fill="#94A3B8" font-family="Segoe UI, Arial, sans-serif" font-size="30">OSCP-like boot2root CTF challenge</text>
</svg>
